<svg height="512" viewBox="0 0 60 59" width="512" xmlns="http://www.w3.org/2000/svg"><g id="097---Skiing" fill="none"><g fill="#F48FB1"><path id="Shape" d="m22.65 36.36c.05.08.09.13.15.21l-5.67-9.11c.06499.1460849.1419174.2865611.23.42z"/><path id="Shape" d="m54.09 2.01c-2.41-1.5-5.11-1.25-6.22.53-.047685.07067322-.091096.14413799-.13.22-1.05 1.99-2.11 3.96-3.19 5.93-.79 1.44-1.58 2.87-2.39 4.29-1.95 3.45-3.9533333 6.8666667-6.01 10.25 0 .01 0 .01-.01.02-1.84 3.06-3.7333333 6.0933333-5.68 9.1v.01c-.1538263-.0199753-.3100711-.0097854-.46.03h-.01c-.136284-.0396956-.2794575-.0499223-.42-.03v-.01c-.0373371-.0799045-.0808001-.1568006-.13-.23l-5.3-8.48c-.0818194-.1378919-.1755076-.2683862-.28-.39-.01-.01-.01-.01-.01-.02-2.06-3.39-4.0633333-6.8066667-6.01-10.25-.81-1.42-1.6-2.85-2.39-4.29-1.08-1.97-2.14-3.94-3.19-5.93-.038904-.07586201-.082315-.14932678-.13-.22-1.11-1.78-3.81-2.03-6.22-.53-2.51 1.57-3.44 4.27-2.11 6.04.63.87 1.27 1.73 1.89 2.61 1 1.38 1.99 2.78 2.96 4.18 2.92 4.14 5.73 8.34 8.47 12.6 0 .01 0 .01.01.02 1.94 2.99 3.84 6.03 5.69 9.08v.01l-.02.02v.01c-.3427246.6331589-.3159414 1.4022175.07 2.01l1.06 1.69c.1944552.3122769.4712716.5648718.8.73-.56.83-1.13 1.66-1.7 2.48h-.01c-.96 1.4-1.9366667 2.7933333-2.93 4.18-1.02 1.43-2.05 2.8566667-3.09 4.28-1.33 1.77-.39 4.47 2.12 6.04s5.34 1.22 6.35-.75c1.35-2.56 2.72-5.11 4.13-7.64.13-.23.26-.47.4-.71.14.24.27.48.4.71 1.41 2.53 2.78 5.08 4.13 7.64 1.01 1.97 3.84 2.31 6.35.75s3.45-4.27 2.12-6.04c-1.04-1.42-2.07-2.8466667-3.09-4.28-.99-1.39-1.9666667-2.7833333-2.93-4.18h-.01c-.57-.82-1.14-1.65-1.7-2.48.3287284-.1651282.6055448-.4177231.8-.73l1.06-1.69c.3859414-.6077825.4127246-1.3768411.07-2.01v-.01l-.02-.02v-.01c1.85-3.05 3.75-6.09 5.69-9.08.01-.01.01-.01.01-.02 2.74-4.26 5.55-8.46 8.47-12.6.97-1.4 1.96-2.8 2.96-4.18.62-.88 1.26-1.74 1.89-2.61 1.33-1.77.4-4.47-2.11-6.04z"/><path id="Shape" d="m37.35 36.36 5.29-8.48c.0880826-.1334389.16501-.2739151.23-.42l-5.67 9.11c.06-.08.1-.13.15-.21z"/><path id="Shape" d="m30.56 32.12c-.0491999.0731994-.0926629.1500955-.13.23l5.71-9.1c-.1044924.1216138-.1981806.2521081-.28.39z"/><path id="Shape" d="m19 5h-2c-.5522847 0-1-.44771525-1-1s.4477153-1 1-1h2c.5522847 0 1 .44771525 1 1s-.4477153 1-1 1z"/><path id="Shape" d="m43 5h-2c-.5522847 0-1-.44771525-1-1s.4477153-1 1-1h2c.5522847 0 1 .44771525 1 1s-.4477153 1-1 1z"/></g><path id="Shape" d="m30 7c1.3306526.00856148 2.5519406.73827152 3.19 1.906.61 1.099.81 2.094 2.921 2.094 2.7304928-.0313048 4.9189927-2.26949249 4.889-5v-3.75c.0037341-.32781379-.1229191-.64368236-.352093-.87810745-.229174-.23442508-.5420927-.36820048-.869907-.37189255h-19.556c-.3278143.00369207-.640733.13746747-.869907.37189255-.2291739.23442509-.3558271.55029366-.352093.87810745v3.75c-.0299927 2.73050751 2.1585072 4.9686952 4.889 5 2.111 0 2.311-.995 2.921-2.094.6380594-1.16772848 1.8593474-1.89743852 3.19-1.906z" fill="#b0d3f0"/><path id="Shape" d="m23.85 23.23c-.5636742-.6850872-1.336517-1.1663575-2.2-1.37-1.4887654-.3442794-3.0436003.1897047-4.0066999 1.3760393s-1.1661708 2.8177183-.5233001 4.2039607c-2.74-4.26-5.55-8.46-8.47-12.6l9.19-1.86c1.95 3.45 3.9533333 6.8666667 6.01 10.25z" fill="#90CAF9"/><path id="Shape" d="m17.84 12.98-9.19 1.86c-.97-1.4-1.96-2.8-2.96-4.18l9.75-1.97h.01c.79 1.44 1.58 2.87 2.39 4.29z" fill="#cc66a1"/><path id="Shape" d="m15.45 8.69h-.01l-9.75 1.97c-.62-.88-1.26-1.74-1.89-2.61-1.33-1.77-.4-4.47 2.11-6.04 2.41-1.5 5.11-1.25 6.22.53.047685.07067322.091096.14413799.13.22 1.05 1.99 2.11 3.96 3.19 5.93z" fill="#3d324c"/><path id="Shape" d="m29.54 32.35c-1.94-3-3.8333333-6.0333333-5.68-9.1" fill="#3d324c"/><path id="Shape" d="m40.88 57.99c-2.51 1.56-5.34 1.22-6.35-.75-1.35-2.56-2.72-5.11-4.13-7.64l9.51-1.93c1.02 1.43 2.05 2.8566667 3.09 4.28 1.33 1.77.39 4.47-2.12 6.04z" fill="#90CAF9"/><path id="Shape" d="m39.91 47.67-9.51 1.93c-.13-.23-.26-.47-.4-.71.66-1.2 1.33-2.39 2.02-3.58.78-1.37 1.57-2.7333333 2.37-4.09.3059633.0018771.6078544-.0701651.88-.21.56.83 1.13 1.66 1.7 2.48h.01c.96 1.4 1.9366667 2.7933333 2.93 4.18z" fill="#90CAF9"/><path id="Shape" d="m22.8 36.57c-.06-.08-.1-.13-.15-.21l-5.29-8.48c-.0880826-.1334389-.16501-.2739151-.23-.42" fill="#3d324c"/><path id="Shape" d="m26.682 36.254c-.345146.0003459-.6660727-.1773168-.849-.47l-6.566-10.508c-.2927109-.469442-.149442-1.0872891.32-1.38s1.0872891-.149442 1.38.32l6.566 10.508c.19248.3079655.2028653.6960772.0271304 1.0138956-.1757349.3178185-.5099627.5153794-.8731304.5161044z" fill="#3d324c"/><path id="Shape" d="m29.99 32.39c-.555104.0938539-1.0431447.4216424-1.34.9l-1.06 1.69c-.3601636.5842211-.397856 1.3116846-.1 1.93-.91 1.37-1.83 2.7366667-2.76 4.1-.3287284-.1651282-.6055448-.4177231-.8-.73l-1.06-1.69c-.3859414-.6077825-.4127246-1.3768411-.07-2.01v-.01l.02-.02v-.01c.164267-.2894057.3979511-.5333994.68-.71l5.09-3.18c.2932021-.1862281.6326711-.2866832.98-.29.1405425-.0199223.283716-.0096956.42.03z" fill="#3d324c"/><path id="Shape" d="m42.88 27.44c.6428707-1.3862424.4397995-3.0176261-.5233001-4.2039607s-2.5179345-1.7203187-4.0066999-1.3760393c-.863483.2036425-1.6363258.6849128-2.2 1.37 2.06-3.39 4.0633333-6.8066667 6.01-10.25l9.19 1.86c-2.92 4.14-5.73 8.34-8.47 12.6z" fill="#90CAF9"/><path id="Shape" d="m54.31 10.66c-1 1.38-1.99 2.78-2.96 4.18l-9.19-1.86c.81-1.42 1.6-2.85 2.39-4.29h.01z" fill="#cc66a1"/><path id="Shape" d="m56.2 8.05c-.63.87-1.27 1.73-1.89 2.61l-9.75-1.97h-.01c1.08-1.97 2.14-3.94 3.19-5.93.038904-.07586201.082315-.14932678.13-.22 1.11-1.78 3.81-2.03 6.22-.53 2.51 1.57 3.44 4.27 2.11 6.04z" fill="#3d324c"/><path id="Shape" d="m29.6 49.6c-1.41 2.53-2.78 5.08-4.13 7.64-1.01 1.97-3.84 2.31-6.35.75s-3.45-4.27-2.12-6.04c1.04-1.42 2.07-2.8466667 3.09-4.28z" fill="#90CAF9"/><path id="Shape" d="m32.02 45.31c-.69 1.19-1.36 2.38-2.02 3.58-.14.24-.27.48-.4.71l-9.51-1.93c.99-1.39 1.9666667-2.7833333 2.93-4.18h.01z" fill="#90CAF9"/><path id="Shape" d="m42.87 27.46c-.06499.1460849-.1419174.2865611-.23.42l-5.29 8.48c-.05.08-.09.13-.15.21" fill="#3d324c"/><path id="Shape" d="m36.14 23.25c-.1044924.1216138-.1981806.2521081-.28.39l-5.3 8.48c-.0491999.0731994-.0926629.1500955-.13.23" fill="#3d324c"/><path id="Shape" d="m33.41 36.108c-.1871791.0005195-.370647-.0521972-.529-.152-.224904-.1405644-.3847573-.3647146-.444394-.6231399-.0596366-.2584252-.0141713-.5299567.126394-.7548601l6.384-10.217c.2929871-.469442.911058-.612487 1.3805-.3195.469442.2929871.612487.911058.3195 1.3805l-6.388 10.217c-.1831676.2923006-.5040511.4695614-.849.469z" fill="#3d324c"/><path id="Shape" d="m37.13 38.59-1.06 1.69c-.1944552.3122769-.4712716.5648718-.8.73-.6218294.309225-1.3592973.275188-1.95-.09l-5.09-3.18c-.3214733-.1996026-.578441-.4878232-.74-.83-.297856-.6183154-.2601636-1.3457789.1-1.93l1.06-1.69c.2968553-.4783576.784896-.8061461 1.34-.9h.01c.1499289-.0397854.3061737-.0499753.46-.03.3363827.0130885.6636557.1129929.95.29l5.09 3.18c.2820489.1766006.515733.4205943.68.71v.01l.02.02v.01c.3427246.6331589.3159414 1.4022175-.07 2.01z" fill="#5d4c72"/><path id="Shape" d="m6 18c1.1045695 0 2 .8954305 2 2v31h-4v-31c0-1.1045695.8954305-2 2-2z" fill="#F48FB1"/><path id="Shape" d="m4 51h4l-.836 7.014c-.09445364.5692168-.58699993.9864425-1.164.986-.57700007.0004425-1.06954636-.4167832-1.164-.986z" fill="#bdc3c7"/><path id="Shape" d="m13.084 35.315c-2.639 0-3.4-3.1-4.282-5.8-.275-.842-.21-.737-.448-1.514h-5.354c-.55228475 0-1-.4477153-1-1s.44771525-1 1-1c6.391 0 6.056-.009 6.182.017.209.036-.071-.078 3.376 1.638 1.0739046.4292694 2.0408572 1.0883535 2.833 1.931 1.802 2.176.457 5.728-2.307 5.728zm-2.351-6.33c.3.91.39 1.186.539 1.623.371 1.1.956 2.939 2.029 2.68.4496646-.1970783.7789915-.5960209.8873116-1.0748788.1083202-.4788579-.0172446-.9806994-.3383116-1.3521212-.601-.725-1.578-1.118-3.117-1.876z" fill="#90CAF9"/><path id="Shape" d="m52 18h4v31c0 1.1045695-.8954305 2-2 2s-2-.8954305-2-2z" fill="#F48FB1" transform="matrix(-1 0 0 -1 108 69)"/><path id="Shape" d="m56 51h-4l.836 7.014c.0944536.5692168.5869999.9864425 1.164.986.5770001.0004425 1.0695464-.4167832 1.164-.986z" fill="#bdc3c7"/><path id="Shape" d="m46.916 35.315c-2.77 0-4.107-3.555-2.307-5.729.7921428-.8426465 1.7590954-1.5017306 2.833-1.931 3.558-1.771 3.2-1.609 3.376-1.638.138-.026-.239-.017 6.182-.017.5522847 0 1 .4477153 1 1s-.4477153 1-1 1h-5.354c-.256.834-.154.606-.448 1.514-.871 2.669-1.644 5.801-4.282 5.801zm2.351-6.33c-1.1457723.4278184-2.2025433 1.0638474-3.117 1.876-.321067.3714218-.4466318.8732633-.3383116 1.3521212.1083201.4788579.437647.8778005.8873116 1.0748788 1.072.264 1.652-1.564 2.029-2.68.191-.557.335-.997.539-1.623z" fill="#90CAF9"/><path id="Shape" d="m36.111 12c-1.5635428.1693763-3.0424105-.7447205-3.59-2.219-.066-.127-.132-.258-.206-.388-.454251-.8571432-1.3449286-1.39314426-2.315-1.39314426s-1.860749.53600106-2.315 1.39314426c-.074.13-.14.261-.206.388-.5475895 1.4742795-2.0264572 2.3883763-3.59 2.219-3.2813655-.0346259-5.9156468-2.71856001-5.889-6v-3.75c-.0060971-1.23463119.9883852-2.24119221 2.223-2.25h19.554c1.2346148.00880779 2.2290971 1.01536881 2.223 2.25v3.75c.0266468 3.28143999-2.6076345 5.9653741-5.889 6zm-6.111-6c1.692853.01061662 3.2474029.93653605 4.063 2.42.084.151.162.3.236.446.436.849.583 1.134 1.812 1.134 2.1772806-.03345007 3.9168207-1.82264015 3.889-4v-3.75c.0068321-.1303969-.0926727-.24194929-.223-.25h-19.554c-.1303273.00805071-.2298321.1196031-.223.25v3.75c-.0278207 2.17735985 1.7117194 3.96654993 3.889 4 1.229 0 1.376-.285 1.812-1.134.074-.145.152-.295.236-.446.8155971-1.48346395 2.370147-2.40938338 4.063-2.42z" fill="#3d324c"/><path id="Shape" d="m11 52h-10c-.55228475 0-1-.4477153-1-1s.44771525-1 1-1h10c.5522847 0 1 .4477153 1 1s-.4477153 1-1 1z" fill="#7f8284"/><path id="Shape" d="m59 52h-10c-.5522847 0-1-.4477153-1-1s.4477153-1 1-1h10c.5522847 0 1 .4477153 1 1s-.4477153 1-1 1z" fill="#7f8284"/></g></svg>